<svg version="1.1" id="Layer_1" xmlns="http://www.w3.org/2000/svg" xmlns:xlink="http://www.w3.org/1999/xlink" x="0px" y="0px"
	 width="100%" viewBox="0 0 240 240" enable-background="new 0 0 240 240" xml:space="preserve"
	 classname="fill-white">
<path fill="white" opacity="1.000000" stroke="none"
	d="
M226.699951,76.464096 
	C234.761627,94.694077 238.035690,113.538857 236.088058,132.854843 
	C232.220169,171.215134 213.882629,201.007889 180.828796,221.257751 
	C159.681168,234.213470 136.376663,239.502502 111.904655,237.043213 
	C73.768410,233.210754 44.088093,214.811432 23.829296,182.018250 
	C10.791076,160.913132 5.549862,137.564835 7.945720,113.145096 
	C11.742605,74.445427 30.046978,43.862419 64.109238,24.390324 
	C106.550850,0.128079 148.783234,3.754458 189.199417,29.517181 
	C206.561157,40.584167 217.849899,57.562981 226.699951,76.464096 
M91.513451,19.112379 
	C84.390724,20.993900 77.521675,23.729939 71.232857,27.410936 
	C31.871710,50.449993 12.163029,84.495720 14.124587,130.520416 
	C14.775425,145.791229 19.116198,160.063751 26.179644,173.412613 
	C48.544205,215.678345 94.974030,238.269592 141.895294,229.487808 
	C172.422867,223.774261 196.259521,207.276733 213.145187,181.417557 
	C227.368866,159.634995 232.516129,135.336853 229.540512,109.470406 
	C228.675507,101.951202 226.956192,94.548340 223.815613,86.626831 
	C226.644165,139.861435 184.932312,169.467285 152.440216,171.421646 
	C109.921684,173.979050 76.118317,145.739563 69.804466,108.682587 
	C66.078636,86.815132 69.703735,66.228493 83.295174,48.108109 
	C96.780273,30.129484 114.792923,19.594959 137.111771,16.231846 
	C121.881210,13.816043 106.976257,14.545986 91.513451,19.112379 
M106.943665,34.475620 
	C82.841499,49.514153 70.840065,80.779381 75.935616,99.805855 
	C85.617912,75.168419 105.775833,62.268967 128.896744,65.914978 
	C150.349457,69.297928 167.579803,87.165550 169.189026,107.614738 
	C170.283585,121.523537 166.988449,133.934982 157.471909,144.529205 
	C148.136688,154.921616 136.475601,160.172577 121.492615,160.644897 
	C130.377548,164.637054 140.403168,165.858398 152.980103,164.894485 
	C191.858688,161.914749 224.716293,123.865471 216.097137,80.085182 
	C212.607101,62.357956 202.834763,48.965420 188.945679,37.832054 
	C165.550964,19.079086 132.529221,17.346363 106.943665,34.475620 
M144.239166,147.766769 
	C159.618179,136.900223 166.292175,119.916016 162.227844,103.040245 
	C158.807541,88.838577 144.399872,73.486771 125.422585,71.923012 
	C96.729965,69.558693 72.506538,97.862244 83.180069,126.239098 
	C93.012337,152.379349 119.929077,161.798492 144.239166,147.766769 
z"/>
</svg>